<?xml version="1.0" encoding="UTF-8" standalone="no"?><!DOCTYPE svg PUBLIC "-//W3C//DTD SVG 1.1//EN" "http://www.w3.org/Graphics/SVG/1.1/DTD/svg11.dtd"><svg width="100%" height="100%" viewBox="0 0 2655 792" version="1.1" xmlns="http://www.w3.org/2000/svg" xmlns:xlink="http://www.w3.org/1999/xlink" xml:space="preserve" xmlns:serif="http://www.serif.com/" style="fill-rule:evenodd;clip-rule:evenodd;stroke-linejoin:round;stroke-miterlimit:2;"><g id="Layer-1" serif:id="Layer 1"><path d="M684.717,547.5c-1.529,-3.737 -3.534,-7.825 -6.029,-12.258c-5.267,-9.425 -12.75,-18.984 -22.442,-28.684c-2.909,-3.045 -8.933,-8.379 -18.083,-16c-7.763,-6.375 -13.58,-11.916 -17.459,-16.633c-10.254,-12.329 -15.383,-24.45 -15.383,-36.367c-0,-7.616 1.529,-13.995 4.575,-19.125c3.741,-6.37 9.216,-9.558 16.421,-9.558c6.783,0 11.983,2.15 15.583,6.442c4.988,5.962 8.038,14.275 9.15,24.941l37.612,-6.858c-0.966,-11.358 -3.841,-21.408 -8.625,-30.137c-4.774,-8.73 -11.049,-15.517 -18.808,-20.367c-9.975,-6.233 -21.958,-9.35 -35.95,-9.35c-14.55,-0 -26.746,3.671 -36.579,11.021c-15.937,12.208 -23.904,30.166 -23.904,53.879c-0,13.171 2.908,25.379 8.733,36.612c5.4,9.984 14.617,21.288 27.638,33.905c15.516,14.704 27.154,25.729 34.916,33.083c9.838,10.671 14.755,21.421 14.755,32.237c-0,7.492 -1.317,13.246 -3.95,17.263c-5.121,8.183 -11.984,12.417 -20.571,12.696c-6.1,0.275 -11.504,-2.163 -16.213,-7.317c-6.375,-6.825 -10.387,-17.825 -12.054,-33.008l-37.413,2.7c0.834,13.862 3.709,26.158 8.63,36.896c4.916,10.737 11.6,19.22 20.054,25.462c10.112,7.621 22.862,11.425 38.241,11.425c8.309,0 15.588,-0.971 21.821,-2.904c11.638,-3.604 20.646,-9.771 27.017,-18.5c9.7,-12.888 14.412,-28.4 14.137,-46.554c-0.141,-7.342 -2.083,-15.659 -5.82,-24.942m62.904,89.783l39.283,0l0,-220.925l41.563,0l-0,-39.491l-122.621,-0l-0,39.491l41.775,0l-0,220.925Zm112.433,-260.416l0,260.416l39.279,0l0,-98.1l26.188,0l23.817,98.1l42.483,0l-29.092,-113.683c13.988,-12.742 20.988,-28.333 20.988,-46.767l-0,-37.82c-0,-18.846 -4.504,-33.53 -13.513,-44.063c-10.254,-12.054 -26.325,-18.083 -48.216,-18.083l-61.934,-0Zm85.425,100.8c0,6.241 -2.183,11.575 -6.55,16.008c-4.366,4.433 -9.662,6.65 -15.9,6.65l-23.696,0l0,-83.346l23.696,0c14.959,0 22.45,7.554 22.45,22.654l0,38.034Zm157.684,99.762l9.191,59.854l41.296,0l-43.637,-260.416l-54.034,-0l-44.275,260.416l40.9,0l9.546,-59.854l41.013,0Zm-5.83,-38.246l-29.1,0l14.55,-102.666l14.55,102.666Zm100.213,98.1l39.275,0l-0,-220.925l41.575,0l-0,-39.491l-122.625,-0l-0,39.491l41.775,0l-0,220.925Zm151.716,-110.566l52.992,-0l0,-39.488l-52.992,0l0,-71.079l72.534,0l-0,-39.487l-111.817,-0l0,260.62l39.283,0l0,-110.566Zm106.134,-134.988c-12.196,12.129 -18.292,26.846 -18.292,44.167l0,142.154c0,17.183 6.029,31.875 18.083,44.063c12.05,12.195 26.742,18.287 44.063,18.287c17.179,0 31.867,-6.058 44.062,-18.183c12.188,-12.121 18.288,-26.842 18.288,-44.167l-0,-142.154c-0,-17.183 -6.063,-31.871 -18.188,-44.063c-12.129,-12.191 -26.845,-18.287 -44.162,-18.287c-17.046,-0 -31.667,6.062 -43.854,18.183m65.258,185.904c0,6.242 -2.183,11.534 -6.542,15.9c-4.375,4.367 -9.666,6.546 -15.9,6.546c-6.233,0 -11.575,-2.179 -16.008,-6.546c-4.433,-4.366 -6.65,-9.658 -6.65,-15.9l0,-142.57c0,-6.234 2.217,-11.534 6.65,-15.9c4.433,-4.363 9.775,-6.546 16.008,-6.546c6.234,-0 11.525,2.183 15.9,6.546c4.359,4.366 6.542,9.666 6.542,15.9l0,142.57Zm75.646,-200.766l-0,260.416l39.283,0l0,-98.1l26.188,0l23.816,98.1l42.48,0l-29.096,-113.683c13.991,-12.742 20.996,-28.333 20.996,-46.767l-0,-37.82c-0,-18.846 -4.505,-33.53 -13.513,-44.063c-10.254,-12.054 -26.325,-18.083 -48.221,-18.083l-61.933,-0Zm85.421,100.8c-0,6.241 -2.184,11.575 -6.542,16.008c-4.362,4.433 -9.667,6.65 -15.9,6.65l-23.696,0l0,-83.346l23.696,0c14.967,0 22.442,7.554 22.442,22.654l-0,38.034Zm197.612,-38.859c0,-17.045 -5.996,-31.666 -17.979,-43.858c-11.983,-12.192 -26.567,-18.287 -43.742,-18.287l-61.729,-0l0,260.62l61.729,0c17.038,0 31.588,-6.091 43.638,-18.287c12.054,-12.188 18.083,-26.879 18.083,-44.063l0,-136.125Zm-84.171,-22.033l23.692,0c6.096,0 11.329,2.217 15.692,6.65c4.366,4.433 6.55,9.767 6.55,16.004l-0,136.334c-0,6.104 -2.15,11.404 -6.446,15.904c-4.296,4.5 -9.563,6.758 -15.796,6.758l-23.692,0l0,-181.65Zm233.692,-39.908l0,260.416l39.283,0l0,-98.1l22.659,0c17.041,0 31.55,-6.091 43.537,-18.287c11.984,-12.188 17.979,-26.879 17.979,-44.063l0,-37.82c0,-17.88 -5.266,-32.563 -15.795,-44.063c-11.367,-12.054 -26.605,-18.083 -45.721,-18.083l-61.942,-0Zm85.425,100.8c0,6.241 -2.183,11.575 -6.546,16.008c-4.366,4.433 -9.666,6.65 -15.904,6.65l-23.692,0l0,-83.346l23.692,0c6.788,0 12.225,2.079 16.317,6.234c4.087,4.162 6.133,9.633 6.133,16.42l0,38.034Zm135.721,99.762l9.196,59.854l41.291,0l-43.637,-260.416l-54.033,-0l-44.271,260.416l40.9,0l9.541,-59.854l41.013,0Zm-5.829,-38.246l-29.1,0l14.55,-102.666l14.55,102.666Zm77.662,-162.316l0,260.416l39.279,0l0,-98.1l26.188,0l23.817,98.1l42.479,0l-29.096,-113.683c13.996,-12.742 20.988,-28.333 20.988,-46.767l-0,-37.82c-0,-18.846 -4.505,-33.53 -13.505,-44.063c-10.254,-12.054 -26.329,-18.083 -48.216,-18.083l-61.934,-0Zm85.417,100.8c0,6.241 -2.179,11.575 -6.55,16.008c-4.362,4.433 -9.662,6.65 -15.896,6.65l-23.691,0l-0.001,-83.346l23.692,0c14.963,0 22.446,7.554 22.446,22.654l0,38.034Zm131.05,53.808l41.238,105.808l46.179,0l-63.054,-154.316l53.766,-106.304l-41.879,-0l-48.004,92.9l-0,-92.9l-39.283,-0l-0,260.62l39.283,0l-0,-82.608l11.754,-23.2Z" style="fill:#dcdcdc;fill-rule:nonzero;"/><path d="M571.958,773.15l34.505,0c14.658,0 36.183,-4.279 36.183,-24.183c-0,-12.096 -9.921,-20.4 -24.121,-21.254l0,-0.246c12.821,-2.071 19.388,-9.163 19.388,-17.95c-0,-19.546 -18.321,-22.846 -34.809,-22.846l-31.146,-0l0,86.479Zm10.08,-79.15l22.287,0c12.829,0 23.517,3.421 23.517,15.517c-0,5.37 -3.971,14.533 -24.888,14.533l-20.917,0l0,-30.05Zm0,37.379l24.575,0c12.83,0 25.959,5.004 25.959,17.833c-0,6.105 -3.817,16.609 -27.479,16.609l-23.054,-0l-0,-34.442Zm179.241,41.771l10.079,0l0,-86.479l-10.079,-0l0,86.479Zm145.042,0l34.504,0c14.654,0 36.183,-4.279 36.183,-24.183c0,-12.096 -9.92,-20.4 -24.12,-21.255l-0,-0.245c12.82,-2.071 19.387,-9.163 19.387,-17.95c0,-19.546 -18.321,-22.846 -34.812,-22.846l-31.142,-0l-0,86.479Zm10.075,-79.15l22.292,0c12.82,0 23.508,3.421 23.508,15.517c-0,5.37 -3.967,14.533 -24.884,14.533l-20.916,-0l-0,-30.05Zm-0,37.379l24.579,0c12.821,0 25.954,5.004 25.954,17.833c0,6.105 -3.816,16.609 -27.483,16.609l-23.05,-0l-0,-34.442Zm191.458,41.771l60.459,-0l-0,-7.329l-50.384,-0l0,-79.15l-10.075,-0l0,86.479Zm181.688,-0l68.55,-0l-0,-7.329l-58.479,-0l-0,-33.709l52.525,0l-0,-7.329l-52.525,0l-0,-30.783l56.033,-0l-0,-7.329l-66.104,-0l-0,86.479Zm377.712,-18.567c-6.412,9.284 -17.7,13.434 -26.8,13.434c-23.729,-0 -38.479,-16.613 -38.479,-38.105c0,-21.495 14.75,-38.108 38.479,-38.108c9.1,0 18.721,3.663 24.359,11.725l6.929,-5.496c-7.95,-9.65 -18.984,-13.554 -31.288,-13.554c-27.708,0 -46.946,19.05 -46.946,45.433c0,26.384 19.238,45.438 46.946,45.438c13.334,-0 25.134,-4.521 33.725,-15.754l-6.925,-5.013Zm113.304,18.567l10.071,-0l0,-41.038l60.463,0l-0,41.038l10.079,-0l-0,-86.479l-10.079,-0l-0,38.112l-60.463,0l0,-38.112l-10.071,-0l0,86.479Zm201.434,-0l9.162,-0l10.625,-22.963l49.813,0l10.229,22.963l9.825,-0l-39.583,-86.479l-9.034,-0l-41.037,86.479Zm66.412,-30.296l-43.166,0l21.916,-47.387l21.25,47.387Zm130.371,30.296l10.079,-0l0,-41.038l23.354,0c16.95,0 32.521,-6.962 32.521,-22.595c0,-18.08 -19.541,-22.846 -34.808,-22.846l-31.146,-0l0,86.479Zm10.079,-79.15l22.288,-0c11.604,-0 23.512,4.396 23.512,15.517c0,11.354 -11.45,15.266 -22.9,15.266l-22.9,0l0,-30.783Zm182.904,79.15l68.55,-0l0,-7.329l-58.47,-0l-0,-33.709l52.516,0l0,-7.329l-52.516,0l-0,-30.783l56.025,-0l-0,-7.329l-66.105,-0l0,86.479Zm195.884,-0l60.454,-0l-0,-7.329l-50.383,-0l-0,-79.15l-10.071,-0l-0,86.479Z" style="fill:#dcdcdc;fill-rule:nonzero;"/><rect x="337.821" y="364.879" width="69.554" height="262.996" style="fill:#d1be2a;"/><rect x="337.821" y="643.967" width="69.554" height="131.383" style="fill:#35739e;"/><rect x="252.171" y="364.879" width="70.113" height="161.538" style="fill:#b66028;"/><rect x="252.179" y="543.067" width="70.113" height="232.283" style="fill:#b12934;"/><path d="M407.604,255.288c-3.246,-58.446 -29.246,-123.738 -69.783,-177.28l-0,194.196l70.112,0l0,-16.916l-0.329,-0Z" style="fill:#b66028;fill-rule:nonzero;"/><path d="M252.5,9.142l-0.187,133.796l69.537,-0.096l0.192,-86.113c-22.342,-24.683 -41.867,-38.55 -69.542,-47.587" style="fill:#652d90;fill-rule:nonzero;"/><rect x="252.179" y="158.9" width="70.113" height="113.304" style="fill:#359861;"/><rect x="6.571" y="364.879" width="69.554" height="262.996" style="fill:#359861;"/><rect x="6.571" y="643.967" width="69.554" height="131.383" style="fill:#b66028;"/><rect x="91.667" y="364.879" width="70.113" height="161.538" style="fill:#652d90;"/><rect x="91.662" y="543.067" width="70.113" height="232.283" style="fill:#d1be2a;"/><path d="M6.346,255.288c3.246,-58.446 29.246,-123.738 69.783,-177.28l0,194.196l-70.108,0l-0,-16.916l0.325,-0Z" style="fill:#b12934;fill-rule:nonzero;"/><path d="M161.45,9.142l0.183,133.796l-69.533,-0.096l-0.188,-86.113c22.338,-24.683 41.867,-38.55 69.538,-47.587" style="fill:#d1be2a;fill-rule:nonzero;"/><rect x="91.662" y="158.9" width="70.113" height="113.304" style="fill:#35739e;"/></g></svg>