<?xml version="1.0" encoding="UTF-8" standalone="no"?><!DOCTYPE svg PUBLIC "-//W3C//DTD SVG 1.1//EN" "http://www.w3.org/Graphics/SVG/1.1/DTD/svg11.dtd"><svg width="100%" height="100%" viewBox="0 0 637 190" version="1.1" xmlns="http://www.w3.org/2000/svg" xmlns:xlink="http://www.w3.org/1999/xlink" xml:space="preserve" xmlns:serif="http://www.serif.com/" style="fill-rule:evenodd;clip-rule:evenodd;stroke-linejoin:round;stroke-miterlimit:2;"><g id="Layer-1" serif:id="Layer 1"><path d="M164.332,131.4c-0.367,-0.897 -0.848,-1.878 -1.447,-2.942c-1.264,-2.262 -3.06,-4.556 -5.386,-6.884c-0.698,-0.731 -2.144,-2.011 -4.34,-3.84c-1.863,-1.53 -3.259,-2.86 -4.19,-3.992c-2.461,-2.959 -3.692,-5.868 -3.692,-8.728c0,-1.828 0.367,-3.359 1.098,-4.59c0.898,-1.529 2.212,-2.294 3.941,-2.294c1.628,-0 2.876,0.516 3.74,1.546c1.197,1.431 1.929,3.426 2.196,5.986l9.027,-1.646c-0.232,-2.726 -0.922,-5.138 -2.07,-7.233c-1.146,-2.095 -2.652,-3.724 -4.514,-4.888c-2.394,-1.496 -5.27,-2.244 -8.628,-2.244c-3.492,0 -6.419,0.881 -8.779,2.645c-3.825,2.93 -5.737,7.24 -5.737,12.931c-0,3.161 0.698,6.091 2.096,8.787c1.296,2.396 3.508,5.109 6.633,8.137c3.724,3.529 6.517,6.175 8.38,7.94c2.361,2.561 3.541,5.141 3.541,7.737c0,1.798 -0.316,3.179 -0.948,4.143c-1.229,1.964 -2.876,2.98 -4.937,3.047c-1.464,0.066 -2.761,-0.519 -3.891,-1.756c-1.53,-1.638 -2.493,-4.278 -2.893,-7.922l-8.979,0.648c0.2,3.327 0.89,6.278 2.071,8.855c1.18,2.577 2.784,4.613 4.813,6.111c2.427,1.829 5.487,2.742 9.178,2.742c1.994,0 3.741,-0.233 5.237,-0.697c2.793,-0.865 4.955,-2.345 6.484,-4.44c2.328,-3.093 3.459,-6.816 3.393,-11.173c-0.034,-1.762 -0.5,-3.758 -1.397,-5.986m15.097,21.548l9.428,0l0,-53.022l9.975,-0l0,-9.478l-29.429,0l-0,9.478l10.026,-0l0,53.022Zm26.984,-62.5l0,62.5l9.427,0l0,-23.544l6.285,0l5.716,23.544l10.196,0l-6.982,-27.284c3.357,-3.058 5.037,-6.8 5.037,-11.224l0,-9.077c0,-4.523 -1.081,-8.047 -3.243,-10.575c-2.461,-2.893 -6.318,-4.34 -11.572,-4.34l-14.864,0Zm20.502,24.192c-0,1.498 -0.524,2.778 -1.572,3.842c-1.048,1.064 -2.319,1.596 -3.816,1.596l-5.687,-0l0,-20.003l5.687,0c3.59,0 5.388,1.813 5.388,5.437l-0,9.128Zm37.844,23.943l2.206,14.365l9.911,0l-10.473,-62.5l-12.968,0l-10.626,62.5l9.816,0l2.291,-14.365l9.843,0Zm-1.399,-9.179l-6.984,0l3.492,-24.64l3.492,24.64Zm24.051,23.544l9.426,0l0,-53.022l9.978,-0l-0,-9.478l-29.43,0l0,9.478l10.026,-0l-0,53.022Zm36.412,-26.536l12.718,0l0,-9.477l-12.718,0l-0,-17.059l17.408,0l-0,-9.477l-26.836,0l-0,62.549l9.428,0l-0,-26.536Zm25.472,-32.397c-2.927,2.911 -4.39,6.443 -4.39,10.6l0,34.117c0,4.124 1.447,7.65 4.34,10.575c2.892,2.927 6.418,4.389 10.575,4.389c4.123,0 7.648,-1.454 10.575,-4.364c2.925,-2.909 4.389,-6.442 4.389,-10.6l0,-34.117c0,-4.124 -1.455,-7.649 -4.365,-10.575c-2.911,-2.926 -6.443,-4.389 -10.599,-4.389c-4.091,0 -7.6,1.455 -10.525,4.364m15.662,44.617c0,1.498 -0.524,2.768 -1.57,3.816c-1.05,1.048 -2.32,1.571 -3.816,1.571c-1.496,0 -2.778,-0.523 -3.842,-1.571c-1.064,-1.048 -1.596,-2.318 -1.596,-3.816l0,-34.217c0,-1.496 0.532,-2.768 1.596,-3.816c1.064,-1.047 2.346,-1.571 3.842,-1.571c1.496,0 2.766,0.524 3.816,1.571c1.046,1.048 1.57,2.32 1.57,3.816l0,34.217Zm18.155,-48.184l0,62.5l9.428,0l0,-23.544l6.285,0l5.716,23.544l10.195,0l-6.983,-27.284c3.358,-3.058 5.039,-6.8 5.039,-11.224l0,-9.077c0,-4.523 -1.081,-8.047 -3.243,-10.575c-2.461,-2.893 -6.318,-4.34 -11.573,-4.34l-14.864,0Zm20.501,24.192c0,1.498 -0.524,2.778 -1.57,3.842c-1.047,1.064 -2.32,1.596 -3.816,1.596l-5.687,-0l0,-20.003l5.687,0c3.592,0 5.386,1.813 5.386,5.437l0,9.128Zm47.427,-9.326c0,-4.091 -1.439,-7.6 -4.315,-10.526c-2.876,-2.926 -6.376,-4.389 -10.498,-4.389l-14.815,0l-0,62.549l14.815,0c4.089,0 7.581,-1.462 10.473,-4.389c2.893,-2.925 4.34,-6.451 4.34,-10.575l0,-32.67Zm-20.201,-5.288l5.686,-0c1.463,-0 2.719,0.532 3.766,1.596c1.048,1.064 1.572,2.344 1.572,3.841l-0,32.72c-0,1.465 -0.516,2.737 -1.547,3.817c-1.031,1.08 -2.295,1.622 -3.791,1.622l-5.686,-0l-0,-43.596Zm56.086,-9.578l0,62.5l9.428,0l0,-23.544l5.438,0c4.09,0 7.572,-1.462 10.449,-4.389c2.876,-2.925 4.315,-6.451 4.315,-10.575l-0,-9.077c-0,-4.291 -1.264,-7.815 -3.791,-10.575c-2.728,-2.893 -6.385,-4.34 -10.973,-4.34l-14.866,0Zm20.502,24.192c-0,1.498 -0.524,2.778 -1.571,3.842c-1.048,1.064 -2.32,1.596 -3.817,1.596l-5.686,-0l0,-20.003l5.686,0c1.629,0 2.934,0.499 3.916,1.496c0.981,0.999 1.472,2.312 1.472,3.941l-0,9.128Zm32.573,23.943l2.207,14.365l9.91,0l-10.473,-62.5l-12.968,0l-10.625,62.5l9.816,0l2.29,-14.365l9.843,0Zm-1.399,-9.179l-6.984,0l3.492,-24.64l3.492,24.64Zm18.639,-38.956l0,62.5l9.427,0l-0,-23.544l6.285,0l5.716,23.544l10.195,0l-6.983,-27.284c3.359,-3.058 5.037,-6.8 5.037,-11.224l0,-9.077c0,-4.523 -1.081,-8.047 -3.241,-10.575c-2.461,-2.893 -6.319,-4.34 -11.572,-4.34l-14.864,0Zm20.5,24.192c0,1.498 -0.523,2.778 -1.572,3.842c-1.047,1.064 -2.319,1.596 -3.815,1.596l-5.686,-0l-0,-20.003l5.686,0c3.591,0 5.387,1.813 5.387,5.437l0,9.128Zm31.452,12.914l9.897,25.394l11.083,0l-15.133,-37.036l12.904,-25.513l-10.051,0l-11.521,22.296l-0,-22.296l-9.428,0l-0,62.549l9.428,0l-0,-19.826l2.821,-5.568Z" style="fill:#231f20;fill-rule:nonzero;"/><path d="M137.27,185.556l8.281,0c3.518,0 8.684,-1.027 8.684,-5.804c0,-2.903 -2.381,-4.896 -5.789,-5.101l0,-0.059c3.077,-0.497 4.653,-2.199 4.653,-4.308c0,-4.691 -4.397,-5.483 -8.354,-5.483l-7.475,0l0,20.755Zm2.419,-18.996l5.349,0c3.079,0 5.644,0.821 5.644,3.724c0,1.289 -0.953,3.488 -5.973,3.488l-5.02,0l-0,-7.212Zm-0,8.971l5.898,-0c3.079,-0 6.23,1.201 6.23,4.28c-0,1.465 -0.916,3.986 -6.595,3.986l-5.533,0l-0,-8.266Zm43.018,10.025l2.419,0l0,-20.755l-2.419,0l0,20.755Zm34.81,0l8.281,0c3.517,0 8.684,-1.027 8.684,-5.804c0,-2.903 -2.381,-4.896 -5.789,-5.101l-0,-0.059c3.077,-0.497 4.653,-2.199 4.653,-4.308c0,-4.691 -4.397,-5.483 -8.355,-5.483l-7.474,0l-0,20.755Zm2.418,-18.996l5.35,0c3.077,0 5.642,0.821 5.642,3.724c0,1.289 -0.952,3.488 -5.972,3.488l-5.02,0l0,-7.212Zm0,8.971l5.899,-0c3.077,-0 6.229,1.201 6.229,4.28c0,1.465 -0.916,3.986 -6.596,3.986l-5.532,0l0,-8.266Zm45.95,10.025l14.51,0l0,-1.759l-12.092,0l0,-18.996l-2.418,0l-0,20.755Zm43.605,0l16.452,0l0,-1.759l-14.035,0l0,-8.09l12.606,-0l-0,-1.759l-12.606,0l0,-7.388l13.448,0l0,-1.759l-15.865,0l0,20.755Zm90.651,-4.456c-1.539,2.228 -4.248,3.224 -6.432,3.224c-5.695,0 -9.235,-3.987 -9.235,-9.145c0,-5.159 3.54,-9.146 9.235,-9.146c2.184,0 4.493,0.879 5.846,2.814l1.663,-1.319c-1.908,-2.316 -4.556,-3.253 -7.509,-3.253c-6.65,-0 -11.267,4.572 -11.267,10.904c0,6.332 4.617,10.905 11.267,10.905c3.2,0 6.032,-1.085 8.094,-3.781l-1.662,-1.203Zm27.193,4.456l2.417,0l0,-9.849l14.511,-0l0,9.849l2.419,0l-0,-20.755l-2.419,0l0,9.147l-14.511,0l0,-9.147l-2.417,0l0,20.755Zm48.344,0l2.199,0l2.55,-5.511l11.955,0l2.455,5.511l2.358,0l-9.5,-20.755l-2.168,0l-9.849,20.755Zm15.939,-7.271l-10.36,0l5.26,-11.373l5.1,11.373Zm31.289,7.271l2.419,0l-0,-9.849l5.605,-0c4.068,-0 7.805,-1.671 7.805,-5.423c0,-4.339 -4.69,-5.483 -8.354,-5.483l-7.475,0l0,20.755Zm2.419,-18.996l5.349,0c2.785,0 5.643,1.055 5.643,3.724c-0,2.725 -2.748,3.664 -5.496,3.664l-5.496,0l-0,-7.388Zm43.897,18.996l16.452,0l0,-1.759l-14.033,0l-0,-8.09l12.604,-0l-0,-1.759l-12.604,0l-0,-7.388l13.446,0l0,-1.759l-15.865,0l0,20.755Zm47.012,0l14.509,0l0,-1.759l-12.092,0l0,-18.996l-2.417,0l0,20.755Z" style="fill:#231f20;fill-rule:nonzero;"/><rect x="81.077" y="87.571" width="16.693" height="63.119" style="fill:#d1be2a;"/><rect x="81.077" y="154.552" width="16.693" height="31.532" style="fill:#35739e;"/><rect x="60.521" y="87.571" width="16.827" height="38.769" style="fill:#b66028;"/><rect x="60.523" y="130.336" width="16.827" height="55.748" style="fill:#b12934;"/><path d="M97.825,61.269c-0.779,-14.027 -7.019,-29.697 -16.748,-42.547l-0,46.607l16.827,-0l-0,-4.06l-0.079,-0Z" style="fill:#b66028;fill-rule:nonzero;"/><path d="M60.6,2.194l-0.045,32.111l16.689,-0.023l0.046,-20.667c-5.362,-5.924 -10.048,-9.252 -16.69,-11.421" style="fill:#652d90;fill-rule:nonzero;"/><rect x="60.523" y="38.136" width="16.827" height="27.193" style="fill:#359861;"/><rect x="1.577" y="87.571" width="16.693" height="63.119" style="fill:#359861;"/><rect x="1.577" y="154.552" width="16.693" height="31.532" style="fill:#b66028;"/><rect x="22" y="87.571" width="16.827" height="38.769" style="fill:#652d90;"/><rect x="21.999" y="130.336" width="16.827" height="55.748" style="fill:#d1be2a;"/><path d="M1.523,61.269c0.779,-14.027 7.019,-29.697 16.748,-42.547l0,46.607l-16.826,-0l-0,-4.06l0.078,-0Z" style="fill:#b12934;fill-rule:nonzero;"/><path d="M38.748,2.194l0.044,32.111l-16.688,-0.023l-0.045,-20.667c5.361,-5.924 10.048,-9.252 16.689,-11.421" style="fill:#d1be2a;fill-rule:nonzero;"/><rect x="21.999" y="38.136" width="16.827" height="27.193" style="fill:#35739e;"/></g></svg>